<svg xmlns="http://www.w3.org/2000/svg" viewBox="117 163 405 316">
  <path d="M 117 479 L 272 479 L 248 444 L 249 435 L 261 435 L 294 479 L 345 479 L 378 435 L 390 435 L 368 479 L 522 479 L 459 377 L 398 377 L 386 396 L 448 396 L 483 460 L 416 460 L 417 441 L 452 441 L 439 416 L 367 416 L 323 474 L 314 473 L 271 416 L 200 416 L 187 441 L 223 441 L 224 459 L 156 460 L 191 396 L 251 396 L 238 377 L 180 377 Z" fill="rgb(239,84,77)" fill-rule="evenodd"/>
  <path d="M 446 357 L 413 305 L 407 303 L 324 416 L 312 413 L 226 311 L 222 311 L 193 361 L 213 361 L 223 346 L 231 346 L 317 450 L 322 450 L 404 339 L 412 339 L 426 361 L 446 361 Z" fill="rgb(239,84,77)" fill-rule="evenodd"/>
  <path d="M 377 249 L 370 239 L 366 239 L 324 283 L 315 283 L 273 240 L 268 240 L 235 291 L 235 297 L 243 307 L 248 307 L 270 273 L 279 273 L 317 312 L 322 312 L 377 255 Z" fill="rgb(239,84,77)" fill-rule="evenodd"/>
  <path d="M 469 186 L 465 186 L 324 333 L 315 333 L 279 296 L 273 298 L 259 320 L 259 325 L 317 393 L 322 393 L 469 190 Z" fill="rgb(239,84,77)" fill-rule="evenodd"/>
  <path d="M 322 163 L 317 163 L 281 220 L 281 225 L 315 260 L 319 260 L 320 208 L 329 209 L 345 234 L 349 234 L 358 225 L 358 219 Z" fill="rgb(239,84,77)" fill-rule="evenodd"/>
</svg>